<svg xmlns="http://www.w3.org/2000/svg" fill="none" viewBox="0 0 48 48" id="Appium--Streamline-Svg-Logos" height="48" width="48">
  <desc>
    Appium Streamline Icon: https://streamlinehq.com
  </desc>
  <path fill="#662d91" d="M0.55416 22.42055c4.55569 10.46555 16.11544 12.2205 29.91194 3.34985 6.36335 5.8895 7.9487 12.8717 2.639 19.90005 -2.80035 1.17795 -5.87645 1.8293 -9.10515 1.8293C11.02135 47.49975 0.5 36.9786 0.5 23.9998c0 -0.53075 0.01946 -1.0571 0.05416 -1.57925Zm21.49119 -4.54295C24.1025 9.3047 29.84695 4.387335 38.8768 5.8087 44.14045 10.1184 47.5 16.66645 47.5 23.9999c0 9.25215 -5.3475 17.2539 -13.1196 21.08695 7.0603 -10.05795 1.2907 -20.66965 -12.33505 -27.20925ZM24.00005 0.5C29.03695 0.5 33.70315 2.08533 37.5285 4.783235 24.68595 3.290255 18.62135 13.99505 19.46845 28.7778 11.12375 31.33725 4.325645 29.4514 0.73309 20.69105 2.34155 9.27925 12.1447 0.5 24.00005 0.5Z" stroke-width="0.5"></path>
</svg>